HIERARCHY
ROOT newVegas:Hips
{
	OFFSET 0.000000 96.479958 0.000000
	CHANNELS 6 Xposition Yposition Zposition Xrotation Yrotation Zrotation
	JOINT newVegas:Pelvis
	{
		OFFSET 0.000000 0.000000 0.000000
		CHANNELS 3 Xrotation Yrotation Zrotation
		JOINT newVegas:LeftUpLeg
		{
			OFFSET 18.735201 -5.666702 -4.541200
			CHANNELS 3 Xrotation Yrotation Zrotation
			JOINT newVegas:LeftLeg
			{
				OFFSET -0.021200 -31.938179 0.493100
				CHANNELS 3 Xrotation Yrotation Zrotation
				JOINT newVegas:LeftFoot
				{
					OFFSET 0.021200 -31.938179 -4.336299
					CHANNELS 3 Xrotation Yrotation Zrotation
					JOINT newVegas:LeftToeBase
					{
						OFFSET 0.943001 -26.722000 15.023500
						CHANNELS 3 Xrotation Yrotation Zrotation
						End Site
						{
							OFFSET 0.000000 30.670183 0.000000
						}
					}
				}
				JOINT newVegas:Left_PantLeg
				{
					OFFSET 0.663870 -9.044666 -1.108900
					CHANNELS 3 Xrotation Yrotation Zrotation
					End Site
					{
						OFFSET 1.415995 20.635357 0.000000
					}
				}
			}
		}
		JOINT newVegas:RightUpLeg
		{
			OFFSET -18.735201 -5.666702 -4.541200
			CHANNELS 3 Xrotation Yrotation Zrotation
			JOINT newVegas:RightLeg
			{
				OFFSET 0.018946 -31.938133 0.493100
				CHANNELS 3 Xrotation Yrotation Zrotation
				JOINT newVegas:RightFoot
				{
					OFFSET -0.018946 -31.938126 -4.336299
					CHANNELS 3 Xrotation Yrotation Zrotation
					JOINT newVegas:RightToeBase
					{
						OFFSET -0.943001 -26.722004 15.023500
						CHANNELS 3 Xrotation Yrotation Zrotation
						End Site
						{
							OFFSET 0.000000 30.670187 0.000000
						}
					}
				}
				JOINT newVegas:Right_PantLeg
				{
					OFFSET -0.661674 -9.044716 -1.108900
					CHANNELS 3 Xrotation Yrotation Zrotation
					End Site
					{
						OFFSET -1.415958 20.635269 0.000000
					}
				}
			}
		}
	}
	JOINT newVegas:Spine
	{
		OFFSET 0.000000 10.199997 -0.299500
		CHANNELS 3 Xrotation Yrotation Zrotation
		JOINT newVegas:Spine1
		{
			OFFSET 0.000000 11.900002 -1.516600
			CHANNELS 3 Xrotation Yrotation Zrotation
			JOINT newVegas:Spine2
			{
				OFFSET 0.000000 13.600006 -2.842500
				CHANNELS 3 Xrotation Yrotation Zrotation
				JOINT newVegas:Neck
				{
					OFFSET 0.000000 9.624100 -2.890100
					CHANNELS 3 Xrotation Yrotation Zrotation
					JOINT newVegas:Head
					{
						OFFSET 0.000000 14.068802 -1.351900
						CHANNELS 3 Xrotation Yrotation Zrotation
						JOINT newVegas:Hair_Back
						{
							OFFSET 0.000000 3.231903 -17.524799
							CHANNELS 3 Xrotation Yrotation Zrotation
							End Site
							{
								OFFSET 0.000000 19.849884 0.000000
							}
						}
						JOINT newVegas:Hair_Front
						{
							OFFSET 0.000000 31.260406 4.573800
							CHANNELS 3 Xrotation Yrotation Zrotation
							JOINT newVegas:Hair_Front1
							{
								OFFSET 0.000000 2.284103 11.993300
								CHANNELS 3 Xrotation Yrotation Zrotation
								JOINT newVegas:Hair_Front2
								{
									OFFSET 0.000000 2.284103 11.993300
									CHANNELS 3 Xrotation Yrotation Zrotation
									End Site
									{
										OFFSET 0.000000 12.208862 0.000000
									}
								}
							}
						}
						JOINT newVegas:Jowel
						{
							OFFSET 0.000000 -7.458206 6.864100
							CHANNELS 3 Xrotation Yrotation Zrotation
							End Site
							{
								OFFSET 0.000000 19.849884 0.000000
							}
						}
					}
				}
				JOINT newVegas:LeftShoulder
				{
					OFFSET 15.263000 10.923401 -0.547700
					CHANNELS 3 Xrotation Yrotation Zrotation
					JOINT newVegas:LeftArm
					{
						OFFSET 25.438599 -2.830597 -13.032500
						CHANNELS 3 Xrotation Yrotation Zrotation
						JOINT newVegas:LeftForeArm
						{
							OFFSET 29.960503 0.000000 0.000000
							CHANNELS 3 Xrotation Yrotation Zrotation
							JOINT newVegas:LeftHand
							{
								OFFSET 27.849251 0.000000 0.000000
								CHANNELS 3 Xrotation Yrotation Zrotation
								JOINT newVegas:LeftHandThumb1
								{
									OFFSET 4.487587 -3.305161 6.305391
									CHANNELS 3 Xrotation Yrotation Zrotation
									JOINT newVegas:LeftHandThumb2
									{
										OFFSET 5.480453 -3.164139 3.164143
										CHANNELS 3 Xrotation Yrotation Zrotation
										JOINT newVegas:LeftHandThumb3
										{
											OFFSET 5.159721 -2.978973 2.978967
											CHANNELS 3 Xrotation Yrotation Zrotation
											End Site
											{
												OFFSET 2.494507 5.926697 1.738678
											}
										}
									}
								}
								JOINT newVegas:LeftHandIndex1
								{
									OFFSET 18.578728 -0.527832 5.208049
									CHANNELS 3 Xrotation Yrotation Zrotation
									JOINT newVegas:LeftHandIndex2
									{
										OFFSET 3.192009 0.000000 0.000000
										CHANNELS 3 Xrotation Yrotation Zrotation
										JOINT newVegas:LeftHandIndex3
										{
											OFFSET 3.835129 0.000000 0.000000
											CHANNELS 3 Xrotation Yrotation Zrotation
											End Site
											{
												OFFSET -0.034599 3.816971 0.371180
											}
										}
									}
								}
								JOINT newVegas:LeftHandMiddle1
								{
									OFFSET 18.476105 0.000000 0.000000
									CHANNELS 3 Xrotation Yrotation Zrotation
									JOINT newVegas:LeftHandMiddle2
									{
										OFFSET 3.324875 0.000000 0.000000
										CHANNELS 3 Xrotation Yrotation Zrotation
										JOINT newVegas:LeftHandMiddle3
										{
											OFFSET 4.596550 0.000000 0.000000
											CHANNELS 3 Xrotation Yrotation Zrotation
											End Site
											{
												OFFSET 0.057701 4.578827 0.399218
											}
										}
									}
								}
								JOINT newVegas:LeftHandRing1
								{
									OFFSET 17.732719 0.121887 -4.201567
									CHANNELS 3 Xrotation Yrotation Zrotation
									JOINT newVegas:LeftHandRing2
									{
										OFFSET 2.733170 0.000000 0.000000
										CHANNELS 3 Xrotation Yrotation Zrotation
										JOINT newVegas:LeftHandRing3
										{
											OFFSET 3.178268 0.000000 0.000000
											CHANNELS 3 Xrotation Yrotation Zrotation
											End Site
											{
												OFFSET 0.119102 3.170624 0.185394
											}
										}
									}
								}
								JOINT newVegas:LeftHandPinky1
								{
									OFFSET 15.989624 -0.606689 -7.535461
									CHANNELS 3 Xrotation Yrotation Zrotation
									JOINT newVegas:LeftHandPinky2
									{
										OFFSET 2.538986 0.000000 0.000000
										CHANNELS 3 Xrotation Yrotation Zrotation
										JOINT newVegas:LeftHandPinky3
										{
											OFFSET 2.593102 0.000000 0.000000
											CHANNELS 3 Xrotation Yrotation Zrotation
											End Site
											{
												OFFSET -0.150902 2.584198 0.152708
											}
										}
									}
								}
							}
							JOINT newVegas:Left_Sleeve
							{
								OFFSET 0.267448 -0.649796 0.577675
								CHANNELS 3 Xrotation Yrotation Zrotation
								End Site
								{
									OFFSET 0.000000 15.991241 0.000000
								}
							}
							JOINT newVegas:Left_CapeC
							{
								OFFSET 15.715958 -8.608795 -6.935905
								CHANNELS 3 Xrotation Yrotation Zrotation
								JOINT newVegas:Left_CapeC1
								{
									OFFSET 0.000000 -8.688499 0.000000
									CHANNELS 3 Xrotation Yrotation Zrotation
									End Site
									{
										OFFSET 0.000000 8.688499 0.000000
									}
								}
							}
						}
						JOINT newVegas:Left_CapeB
						{
							OFFSET 26.118385 -8.608795 -7.079235
							CHANNELS 3 Xrotation Yrotation Zrotation
							JOINT newVegas:Left_CapeB1
							{
								OFFSET 0.000000 -8.688499 0.000000
								CHANNELS 3 Xrotation Yrotation Zrotation
								End Site
								{
									OFFSET 0.000000 8.688499 0.000000
								}
							}
						}
						JOINT newVegas:Left_CapeA
						{
							OFFSET 5.115639 -8.608795 -10.395809
							CHANNELS 3 Xrotation Yrotation Zrotation
							JOINT newVegas:Left_CapeA1
							{
								OFFSET 0.000000 -8.688499 0.000000
								CHANNELS 3 Xrotation Yrotation Zrotation
								End Site
								{
									OFFSET 0.000000 8.688499 0.000000
								}
							}
						}
					}
				}
				JOINT newVegas:RightShoulder
				{
					OFFSET -15.263000 10.923401 -0.547700
					CHANNELS 3 Xrotation Yrotation Zrotation
					JOINT newVegas:RightArm
					{
						OFFSET -25.438599 -2.830597 -13.032500
						CHANNELS 3 Xrotation Yrotation Zrotation
						JOINT newVegas:RightForeArm
						{
							OFFSET -29.960503 0.000000 0.000000
							CHANNELS 3 Xrotation Yrotation Zrotation
							JOINT newVegas:RightHand
							{
								OFFSET -27.849251 0.000000 0.000000
								CHANNELS 3 Xrotation Yrotation Zrotation
								JOINT newVegas:RightHandThumb1
								{
									OFFSET -4.487587 -3.305161 6.305391
									CHANNELS 3 Xrotation Yrotation Zrotation
									JOINT newVegas:RightHandThumb2
									{
										OFFSET -5.480453 -3.164139 3.164143
										CHANNELS 3 Xrotation Yrotation Zrotation
										JOINT newVegas:RightHandThumb3
										{
											OFFSET -5.159721 -2.978973 2.978967
											CHANNELS 3 Xrotation Yrotation Zrotation
											End Site
											{
												OFFSET -2.494507 5.926697 1.738678
											}
										}
									}
								}
								JOINT newVegas:RightHandIndex1
								{
									OFFSET -18.578728 -0.527832 5.208049
									CHANNELS 3 Xrotation Yrotation Zrotation
									JOINT newVegas:RightHandIndex2
									{
										OFFSET -3.192009 0.000000 0.000000
										CHANNELS 3 Xrotation Yrotation Zrotation
										JOINT newVegas:RightHandIndex3
										{
											OFFSET -3.835129 0.000000 0.000000
											CHANNELS 3 Xrotation Yrotation Zrotation
											End Site
											{
												OFFSET 0.034599 3.816971 0.371180
											}
										}
									}
								}
								JOINT newVegas:RightHandMiddle1
								{
									OFFSET -18.476105 0.000000 0.000000
									CHANNELS 3 Xrotation Yrotation Zrotation
									JOINT newVegas:RightHandMiddle2
									{
										OFFSET -3.324875 0.000000 0.000000
										CHANNELS 3 Xrotation Yrotation Zrotation
										JOINT newVegas:RightHandMiddle3
										{
											OFFSET -4.596550 0.000000 0.000000
											CHANNELS 3 Xrotation Yrotation Zrotation
											End Site
											{
												OFFSET -0.057701 4.578827 0.399218
											}
										}
									}
								}
								JOINT newVegas:RightHandRing1
								{
									OFFSET -17.732719 0.121887 -4.201567
									CHANNELS 3 Xrotation Yrotation Zrotation
									JOINT newVegas:RightHandRing2
									{
										OFFSET -2.733170 0.000000 0.000000
										CHANNELS 3 Xrotation Yrotation Zrotation
										JOINT newVegas:RightHandRing3
										{
											OFFSET -3.178268 0.000000 0.000000
											CHANNELS 3 Xrotation Yrotation Zrotation
											End Site
											{
												OFFSET -0.119102 3.170624 0.185394
											}
										}
									}
								}
								JOINT newVegas:RightHandPinky1
								{
									OFFSET -15.989624 -0.606689 -7.535461
									CHANNELS 3 Xrotation Yrotation Zrotation
									JOINT newVegas:RightHandPinky2
									{
										OFFSET -2.538986 0.000000 0.000000
										CHANNELS 3 Xrotation Yrotation Zrotation
										JOINT newVegas:RightHandPinky3
										{
											OFFSET -2.593102 0.000000 0.000000
											CHANNELS 3 Xrotation Yrotation Zrotation
											End Site
											{
												OFFSET 0.150902 2.584198 0.152708
											}
										}
									}
								}
							}
							JOINT newVegas:Right_CapeC
							{
								OFFSET -15.715958 -8.608795 -6.935905
								CHANNELS 3 Xrotation Yrotation Zrotation
								JOINT newVegas:Right_CapeC1
								{
									OFFSET 0.000000 -8.688499 0.000000
									CHANNELS 3 Xrotation Yrotation Zrotation
									End Site
									{
										OFFSET 0.000000 8.688499 0.000000
									}
								}
							}
							JOINT newVegas:Right_Sleeve
							{
								OFFSET -0.267448 -0.649994 0.577675
								CHANNELS 3 Xrotation Yrotation Zrotation
								End Site
								{
									OFFSET 0.000000 15.991302 0.000000
								}
							}
						}
						JOINT newVegas:Right_CapeA
						{
							OFFSET -5.115540 -8.608795 -10.395824
							CHANNELS 3 Xrotation Yrotation Zrotation
							JOINT newVegas:Right_CapeA1
							{
								OFFSET 0.000000 -8.688499 0.000000
								CHANNELS 3 Xrotation Yrotation Zrotation
								End Site
								{
									OFFSET 0.000000 8.688499 0.000000
								}
							}
						}
						JOINT newVegas:Right_CapeB
						{
							OFFSET -26.118187 -8.608795 -7.079266
							CHANNELS 3 Xrotation Yrotation Zrotation
							JOINT newVegas:Right_CapeB1
							{
								OFFSET 0.000000 -8.688499 0.000000
								CHANNELS 3 Xrotation Yrotation Zrotation
								End Site
								{
									OFFSET 0.000000 8.688499 0.000000
								}
							}
						}
					}
				}
				JOINT newVegas:Left_Collar
				{
					OFFSET 18.625099 8.655502 8.828100
					CHANNELS 3 Xrotation Yrotation Zrotation
					JOINT newVegas:Left_Collar1
					{
						OFFSET 14.783401 10.540405 -1.259500
						CHANNELS 3 Xrotation Yrotation Zrotation
						End Site
						{
							OFFSET 0.000000 18.199875 0.000000
						}
					}
				}
				JOINT newVegas:Collar_Back
				{
					OFFSET 0.000000 15.630707 -20.132601
					CHANNELS 3 Xrotation Yrotation Zrotation
					End Site
					{
						OFFSET 0.000000 22.523010 0.000000
					}
				}
				JOINT newVegas:Left_Peck
				{
					OFFSET 17.239599 -5.132599 25.482599
					CHANNELS 3 Xrotation Yrotation Zrotation
					End Site
					{
						OFFSET 0.000000 22.523010 0.000000
					}
				}
				JOINT newVegas:Right_Peck
				{
					OFFSET -17.239599 -5.132202 25.482599
					CHANNELS 3 Xrotation Yrotation Zrotation
					End Site
					{
						OFFSET 0.000000 22.523010 0.000000
					}
				}
				JOINT newVegas:Right_Collar
				{
					OFFSET -18.625099 8.655792 8.828100
					CHANNELS 3 Xrotation Yrotation Zrotation
					JOINT newVegas:Right_Collar1
					{
						OFFSET -14.783401 10.539993 -1.259500
						CHANNELS 3 Xrotation Yrotation Zrotation
						End Site
						{
							OFFSET 0.000000 18.199631 0.000000
						}
					}
				}
			}
		}
		JOINT newVegas:Belly
		{
			OFFSET 0.000000 -6.540398 9.014299
			CHANNELS 3 Xrotation Yrotation Zrotation
			End Site
			{
				OFFSET 0.000000 11.566666 0.000000
			}
		}
	}
	JOINT newVegas:ElvisFacialAnim_Joint
	{
		OFFSET 1.000000 -95.330101 -8.825800
		CHANNELS 3 Xrotation Yrotation Zrotation
		End Site
		{
			OFFSET 0.000000 35.315800 0.000000
		}
	}
}
MOTION
Frames: 4
Frame Time: 0.016667
1.634258 93.239868 11.239149 -31.923942 -38.380312 -21.457649 0.000001 0.000001 -0.000000 0.217988 12.877610 2.064178 35.559987 -1.652290 -4.702074 -12.667359 8.300090 8.497211 0.000000 0.000000 -0.000000 0.000001 -0.000001 -0.000000 16.057063 -8.374728 -9.672270 28.296417 5.071835 -5.973935 -18.072798 -12.231720 7.747636 0.000000 0.000002 0.000000 0.000001 -0.000001 -0.000001 11.171032 -4.806402 -0.927995 3.545657 -2.400649 -0.151373 3.557023 -2.388382 -0.108335 0.538387 0.129775 -0.297236 0.538389 0.129764 -0.297236 -0.000000 -0.000000 -0.000000 0.538382 0.129742 -0.297237 0.538459 0.129773 -0.297237 -0.000000 0.000001 -0.000000 -0.000000 -0.000000 0.000000 0.576507 -16.606948 -10.307152 -20.089161 4.591495 -37.031216 -0.000020 -67.698882 -0.000014 -41.746697 -11.632973 -7.621728 -22.783315 -14.798010 12.273480 3.061408 10.434226 14.851283 0.000002 -0.000001 -0.000004 2.077594 -2.776289 26.093711 3.254390 5.245072 -63.613903 -0.000000 -0.000000 -0.000000 -0.902198 3.834347 20.965925 2.978802 5.099677 -60.557885 0.000000 -0.000001 -0.000000 -6.120863 13.236950 27.840234 3.788290 5.476547 -69.323708 -0.000001 -0.000001 -0.000001 -10.441717 21.141327 29.056560 0.279108 1.788348 -17.739137 -0.000000 0.000003 0.000001 0.000000 0.000000 0.000003 0.000000 0.000000 0.000003 -0.000001 0.000000 0.000003 0.000002 -0.000001 -0.000001 0.000002 -0.000002 -0.000003 0.000002 -0.000001 -0.000001 -0.000000 -0.000002 -0.000002 0.014987 14.189137 15.480071 -11.472629 -5.400291 60.640380 -0.000021 39.601030 0.000017 -3.018904 -4.350296 23.974258 -20.073120 16.089470 -24.921354 8.794295 -40.952759 -1.386091 0.000001 -0.000000 -0.000000 1.096417 -5.220433 38.986330 3.071101 -4.379319 70.068534 0.000001 0.000001 0.000001 2.986231 -6.607870 70.685204 0.640871 -2.359622 30.386747 -0.000002 0.000000 -0.000001 5.905020 -7.187143 80.752930 0.324121 -1.708673 21.480940 0.000001 -0.000001 0.000002 2.049617 -22.469477 97.460208 1.111355 -3.021262 40.383999 0.000000 0.000005 0.000000 -0.000003 -0.000003 -0.000000 -0.000002 -0.000000 -0.000001 -0.000003 -0.000003 0.000001 -0.000001 0.000001 -0.000002 -0.000001 0.000002 -0.000002 -0.000001 0.000001 -0.000002 -0.000001 0.000002 -0.000001 0.000000 -0.000002 -0.000000 0.000000 -0.000002 -0.000000 0.000000 -0.000002 -0.000000 0.000000 -0.000002 -0.000000 0.000000 -0.000002 -0.000000 0.000000 -0.000002 -0.000000 0.000000 -0.000002 -0.000000 -0.000000 0.000001 -0.000000 0.000001 0.000001 -0.000000 
1.972149 93.239334 11.491358 -32.439044 -39.395196 -22.281706 -0.000001 -0.000002 -0.000000 0.449405 13.157547 1.822269 35.533615 -2.053706 -5.126390 -13.077720 9.534348 9.685358 0.000000 0.000000 -0.000000 -0.000002 -0.000000 -0.000000 15.398701 -8.160725 -10.057162 28.580413 4.777607 -6.126804 -17.278550 -12.500299 8.400688 -0.000000 -0.000001 0.000001 0.000000 0.000000 -0.000000 11.171295 -4.806606 -0.924662 3.545658 -2.400645 -0.151373 3.557022 -2.388383 -0.108336 0.525198 0.130874 -0.300199 0.525202 0.130884 -0.300198 -0.000000 0.000001 0.000000 0.525199 0.130885 -0.300198 0.525191 0.130864 -0.300192 0.000000 0.000002 0.000000 -0.000000 0.000001 0.000000 0.579612 -16.606963 -10.288917 -19.994003 4.524803 -36.978613 -0.000025 -67.695193 -0.000028 -41.851448 -11.691143 -7.561902 -22.783312 -14.798008 12.273483 3.079711 10.434810 14.836335 0.000003 -0.000003 0.000006 2.045401 -2.802601 26.067077 3.253656 5.244740 -63.605973 0.000002 0.000001 -0.000000 -0.893469 3.814332 20.948149 2.979441 5.100041 -60.565104 0.000001 -0.000001 -0.000000 -6.128910 13.260731 27.829027 3.784899 5.475281 -69.288349 -0.000000 -0.000002 0.000001 -10.387947 21.193315 29.075251 0.279670 1.790199 -17.757990 -0.000001 -0.000003 -0.000003 0.000001 -0.000001 -0.000001 0.000001 -0.000001 -0.000001 0.000000 -0.000001 -0.000001 0.000002 0.000000 -0.000001 0.000002 -0.000001 -0.000002 0.000002 0.000000 -0.000001 -0.000000 -0.000001 -0.000001 0.007982 14.220991 15.529861 -11.429882 -5.404810 60.569974 0.000036 39.667194 -0.000030 -3.063976 -4.381493 23.963521 -20.073120 16.089470 -24.921352 8.794290 -40.952759 -1.386088 -0.000002 -0.000002 -0.000001 1.106965 -5.237096 39.169711 3.083391 -4.383756 70.229433 0.000000 -0.000002 -0.000002 2.981883 -6.606624 70.757891 0.640854 -2.359565 30.385958 0.000003 -0.000001 0.000000 5.895809 -7.186280 80.734776 0.324346 -1.709191 21.487796 0.000002 0.000002 0.000001 2.105657 -22.468981 97.580324 1.111358 -3.021251 40.383992 0.000002 -0.000000 -0.000002 -0.000002 0.000004 -0.000001 -0.000001 0.000001 0.000000 -0.000002 0.000004 -0.000000 -0.000000 -0.000003 -0.000000 -0.000000 -0.000002 -0.000000 -0.000000 -0.000003 -0.000000 -0.000000 -0.000002 -0.000000 -0.000000 -0.000001 0.000000 -0.000000 -0.000001 0.000000 -0.000000 -0.000001 0.000000 -0.000000 -0.000001 0.000000 -0.000000 -0.000001 0.000000 -0.000000 -0.000001 0.000000 -0.000000 -0.000001 0.000000 0.000001 0.000002 0.000000 -0.000001 -0.000002 -0.000000 
2.299749 93.239639 11.745174 -32.980620 -40.403786 -23.129693 0.000003 0.000000 -0.000001 0.828407 13.451918 1.417559 35.351768 -2.427414 -5.450750 -13.761422 10.760607 11.087646 -0.000000 -0.000000 -0.000000 0.000000 0.000001 -0.000000 14.729936 -8.080680 -10.462209 28.894053 4.947521 -6.154966 -16.489846 -13.365434 8.762900 -0.000000 -0.000001 -0.000000 -0.000001 -0.000001 -0.000001 11.171589 -4.806829 -0.921245 3.545659 -2.400645 -0.151372 3.557021 -2.388383 -0.108336 0.510768 0.134943 -0.309683 0.510779 0.134947 -0.309694 0.000001 0.000000 -0.000000 0.510702 0.134913 -0.309692 0.510874 0.135079 -0.309724 -0.000000 -0.000001 0.000000 0.000001 0.000000 -0.000000 0.580767 -16.582625 -10.279779 -19.895771 4.421317 -36.921790 -0.000001 -67.679450 0.000004 -41.961045 -11.751911 -7.500612 -22.783307 -14.798010 12.273485 3.099925 10.435457 14.819798 -0.000001 -0.000006 -0.000002 2.025253 -2.817834 26.042798 3.253569 5.244688 -63.605003 0.000002 0.000000 -0.000000 -0.885635 3.795377 20.937784 2.979673 5.100174 -60.567788 0.000000 -0.000000 -0.000000 -6.132723 13.270855 27.825631 3.782932 5.474562 -69.267844 -0.000000 -0.000002 -0.000000 -10.351089 21.229425 29.094437 0.279758 1.790409 -17.760206 -0.000000 -0.000002 -0.000002 -0.000001 -0.000003 -0.000000 -0.000001 -0.000003 -0.000000 -0.000002 -0.000002 -0.000000 0.000002 0.000000 -0.000000 0.000002 -0.000001 -0.000000 0.000002 0.000000 -0.000000 0.000000 -0.000001 -0.000001 0.005023 14.258427 15.543484 -11.398957 -5.416207 60.537517 -0.000049 39.702950 0.000042 -3.105288 -4.392593 23.950446 -20.073118 16.089475 -24.921347 8.794297 -40.952752 -1.386087 -0.000006 -0.000004 -0.000001 1.117284 -5.251233 39.338355 3.100180 -4.389741 70.448852 0.000004 0.000000 -0.000001 2.976173 -6.604903 70.820544 0.641038 -2.359858 30.390285 0.000003 -0.000001 0.000001 5.886028 -7.185503 80.710856 0.324520 -1.709651 21.493808 -0.000002 -0.000001 -0.000000 2.138411 -22.467815 97.646003 1.111360 -3.021256 40.383992 -0.000001 0.000001 0.000001 -0.000002 0.000001 -0.000002 -0.000001 0.000005 0.000000 -0.000002 0.000000 -0.000002 -0.000001 0.000002 -0.000001 -0.000001 0.000003 -0.000002 -0.000001 0.000002 -0.000001 -0.000001 0.000003 -0.000001 -0.000000 0.000002 0.000000 -0.000000 0.000002 0.000000 -0.000000 0.000002 0.000000 -0.000000 0.000002 0.000000 -0.000000 0.000002 0.000000 -0.000000 0.000002 0.000000 -0.000000 0.000002 0.000000 -0.000000 0.000002 0.000000 0.000003 0.000000 -0.000001 
2.612707 93.249413 12.010801 -33.550644 -41.406673 -24.001107 -0.000000 0.000001 -0.000000 1.239970 13.657775 1.248582 35.058599 -2.877300 -5.825325 -14.247959 12.115880 11.747992 0.000000 -0.000002 -0.000000 -0.000001 0.000000 -0.000001 14.149064 -8.107121 -10.719778 29.153023 4.891802 -6.122765 -15.745224 -14.817105 8.784879 0.000000 0.000001 -0.000000 0.000003 -0.000000 0.000000 11.171661 -4.806153 -0.920198 3.545660 -2.400647 -0.151373 3.557021 -2.388377 -0.108335 0.496879 0.141400 -0.323982 0.496889 0.141418 -0.323980 -0.000000 -0.000002 -0.000000 0.496949 0.141387 -0.323979 0.496869 0.141402 -0.323980 0.000000 0.000003 0.000000 -0.000000 -0.000002 -0.000000 0.581072 -16.531949 -10.273113 -19.827080 4.304713 -36.893851 0.000009 -67.649144 0.000012 -42.037847 -11.798983 -7.458970 -22.783313 -14.798013 12.273482 3.120380 10.436117 14.803045 0.000002 0.000000 -0.000004 2.016338 -2.822804 26.020144 3.253952 5.244879 -63.609354 0.000000 -0.000000 -0.000000 -0.880714 3.784780 20.924177 2.979447 5.100043 -60.565234 0.000000 -0.000001 -0.000001 -6.133147 13.271920 27.825368 3.781457 5.474010 -69.252456 0.000001 -0.000001 -0.000000 -10.329199 21.252292 29.106643 0.279467 1.789512 -17.750950 -0.000001 0.000000 -0.000004 -0.000001 -0.000001 -0.000002 -0.000001 -0.000001 -0.000002 -0.000002 -0.000001 -0.000002 -0.000000 -0.000003 -0.000000 0.000000 -0.000003 -0.000002 -0.000000 -0.000003 -0.000000 -0.000002 -0.000003 -0.000001 0.004874 14.295181 15.534099 -11.379693 -5.432803 60.532080 -0.000021 39.716734 0.000022 -3.137140 -4.390532 23.938382 -20.073117 16.089475 -24.921350 8.794291 -40.952759 -1.386092 0.000005 -0.000001 0.000001 1.125933 -5.261660 39.465550 3.114860 -4.394903 70.640535 -0.000001 -0.000001 0.000001 2.971162 -6.603329 70.859606 0.641268 -2.360253 30.395940 0.000004 0.000002 0.000001 5.878775 -7.185197 80.685353 0.324635 -1.709932 21.497592 0.000001 -0.000001 0.000001 2.141819 -22.466802 97.647526 1.111361 -3.021260 40.383995 0.000001 -0.000000 0.000001 -0.000002 -0.000001 -0.000003 -0.000001 -0.000002 0.000000 -0.000002 -0.000001 -0.000003 -0.000001 0.000002 -0.000001 -0.000001 0.000003 -0.000001 -0.000001 0.000002 -0.000001 -0.000002 0.000003 -0.000001 -0.000000 0.000004 0.000000 -0.000000 0.000004 0.000000 -0.000000 0.000004 0.000000 -0.000000 0.000004 0.000000 -0.000000 0.000004 0.000000 -0.000000 0.000004 0.000000 -0.000000 0.000004 0.000000 -0.000000 -0.000001 0.000000 -0.000000 0.000001 -0.000000 
